<svg width="14" height="14" viewBox="0 0 14 14" fill="none" xmlns="http://www.w3.org/2000/svg">
<path d="M0.1875 12.2188C0.03125 12.3438 0.03125 12.5938 0.1875 12.75L0.78125 13.375C0.9375 13.5 1.1875 13.5 1.3125 13.375L7 7.71875L12.6562 13.375C12.7812 13.5 13.0312 13.5 13.1875 13.375L13.7812 12.75C13.9375 12.5938 13.9375 12.3438 13.7812 12.2188L7.25 5.65625C7.09375 5.53125 6.875 5.53125 6.71875 5.65625L0.1875 12.2188ZM0.1875 7.75L0.78125 8.375C0.9375 8.5 1.1875 8.5 1.3125 8.375L7 2.71875L12.6562 8.375C12.7812 8.5 13.0312 8.5 13.1875 8.375L13.7812 7.75C13.9375 7.59375 13.9375 7.34375 13.7812 7.21875L7.25 0.65625C7.09375 0.53125 6.875 0.53125 6.71875 0.65625L0.1875 7.21875C0.03125 7.34375 0.03125 7.59375 0.1875 7.75Z" fill="#003736"/>
</svg>
