<svg width="25" height="25" viewBox="0 0 25 25" fill="none" xmlns="http://www.w3.org/2000/svg">
<g clip-path="url(#clip0_16_18911)">
<path d="M12.75 14.5322C14.41 14.5322 15.74 13.1922 15.74 11.5322L15.75 5.53223C15.75 3.87223 14.41 2.53223 12.75 2.53223C11.09 2.53223 9.75 3.87223 9.75 5.53223V11.5322C9.75 13.1922 11.09 14.5322 12.75 14.5322ZM18.05 11.5322C18.05 14.5322 15.51 16.6322 12.75 16.6322C9.99 16.6322 7.45 14.5322 7.45 11.5322H5.75C5.75 14.9422 8.47 17.7622 11.75 18.2522V21.5322H13.75V18.2522C17.03 17.7722 19.75 14.9522 19.75 11.5322H18.05Z" fill="#003736"/>
</g>
<defs>
<clipPath id="clip0_16_18911">
<rect width="24" height="24" fill="white" transform="translate(0.75 0.241211)"/>
</clipPath>
</defs>
</svg>
