<svg width="25" height="24" viewBox="0 0 25 24" fill="none" xmlns="http://www.w3.org/2000/svg">
<path d="M18.25 10H17.75C17.4688 10 17.25 10.25 17.25 10.5V12C17.25 14.3438 15.2188 16.2188 12.8438 16C10.75 15.7812 9.25 13.9375 9.25 11.8438V10.5C9.25 10.25 9 10 8.75 10H8.25C7.96875 10 7.75 10.25 7.75 10.5V11.7812C7.75 14.5625 9.71875 17.0625 12.5 17.4375V18.5H10.75C10.4688 18.5 10.25 18.75 10.25 19V19.5C10.25 19.7812 10.4688 20 10.75 20H15.75C16 20 16.25 19.7812 16.25 19.5V19C16.25 18.75 16 18.5 15.75 18.5H14V17.4688C16.6562 17.0938 18.75 14.7812 18.75 12V10.5C18.75 10.25 18.5 10 18.25 10ZM13.25 15C14.9062 15 16.25 13.6875 16.25 12V7C16.25 5.34375 14.9062 4 13.25 4C11.5625 4 10.25 5.34375 10.25 7V12C10.25 13.6875 11.5625 15 13.25 15ZM11.75 7C11.75 6.1875 12.4062 5.5 13.25 5.5C14.0625 5.5 14.75 6.1875 14.75 7V12C14.75 12.8438 14.0625 13.5 13.25 13.5C12.4062 13.5 11.75 12.8438 11.75 12V7Z" fill="#003736"/>
</svg>
