<svg width="25" height="24" viewBox="0 0 25 24" fill="none" xmlns="http://www.w3.org/2000/svg">
<path
    d="M12.5 4.25C8.21875 4.25 4.75 7.75 4.75 12C4.75 16.2812 8.21875 19.75 12.5 19.75C16.75 19.75 20.25 16.2812 20.25 12C20.25 7.75 16.75 4.25 12.5 4.25ZM12.5 18.25C9.03125 18.25 6.25 15.4688 6.25 12C6.25 8.5625 9.03125 5.75 12.5 5.75C15.9375 5.75 18.75 8.5625 18.75 12C18.75 15.4688 15.9375 18.25 12.5 18.25ZM12.5 7.6875C11.75 7.6875 11.1875 8.28125 11.1875 9C11.1875 9.75 11.75 10.3125 12.5 10.3125C13.2188 10.3125 13.8125 9.75 13.8125 9C13.8125 8.28125 13.2188 7.6875 12.5 7.6875ZM14.25 15.625V14.875C14.25 14.6875 14.0625 14.5 13.875 14.5H13.5V11.375C13.5 11.1875 13.3125 11 13.125 11H11.125C10.9062 11 10.75 11.1875 10.75 11.375V12.125C10.75 12.3438 10.9062 12.5 11.125 12.5H11.5V14.5H11.125C10.9062 14.5 10.75 14.6875 10.75 14.875V15.625C10.75 15.8438 10.9062 16 11.125 16H13.875C14.0625 16 14.25 15.8438 14.25 15.625Z"
    fill="#003736"
/>
</svg>