<svg width="24" height="24" viewBox="0 0 24 24" fill="none" xmlns="http://www.w3.org/2000/svg">
<path d="M19.625 16.5C19.5312 16.3125 19.2812 16.25 19.0938 16.3438L17.8438 17L15.9062 12.7188C15.8125 12.4375 15.5312 12.25 15.25 12.25H10.4062L10.1875 10.75H14.625C14.8125 10.75 15 10.5938 15 10.375V9.62504C15 9.43754 14.8125 9.25004 14.625 9.25004H10L9.6875 7.00004C10.4375 6.90629 11.0312 6.25004 10.9688 5.43754C10.9375 4.68754 10.3125 4.06254 9.53125 4.03129C8.6875 3.96879 8 4.65629 8 5.50004C8 5.65629 7.90625 5.03129 9 13.125C9.03125 13.5 9.34375 13.75 9.75 13.75H14.75L16.7812 18.3125C16.9688 18.7188 17.4062 18.875 17.8125 18.6875L19.7812 17.6875C19.9688 17.5938 20.0312 17.375 19.9375 17.1875L19.625 16.5ZM13.7812 15.25H13.4062C13.0625 17.125 11.4375 18.5 9.5 18.5C7.28125 18.5 5.5 16.7188 5.5 14.5C5.5 13.1563 6.1875 11.9375 7.21875 11.2188L7 9.59379C5.21875 10.5 4 12.375 4 14.5C4 17.5625 6.4375 20 9.5 20C11.6875 20 13.5938 18.7188 14.4688 16.8438L13.7812 15.25Z" fill="#003736"/>
</svg>
