<svg width="25" height="25" viewBox="0 0 25 25" fill="none" xmlns="http://www.w3.org/2000/svg">
<path d="M3.25 8.24121C3.25 9.34578 4.14543 10.2412 5.25 10.2412C6.35457 10.2412 7.25 9.34578 7.25 8.24121C7.25 7.13664 6.35457 6.24121 5.25 6.24121C4.14543 6.24121 3.25 7.13664 3.25 8.24121Z" stroke="#003736" stroke-width="1.3" stroke-linecap="round" stroke-linejoin="round"/>
<path d="M10.25 8.24121C10.25 9.34578 11.1454 10.2412 12.25 10.2412C13.3546 10.2412 14.25 9.34578 14.25 8.24121C14.25 7.13664 13.3546 6.24121 12.25 6.24121C11.1454 6.24121 10.25 7.13664 10.25 8.24121Z" stroke="#003736" stroke-width="1.3" stroke-linecap="round" stroke-linejoin="round"/>
<path d="M17.25 8.24121C17.25 9.34578 18.1454 10.2412 19.25 10.2412C20.3546 10.2412 21.25 9.34578 21.25 8.24121C21.25 7.13664 20.3546 6.24121 19.25 6.24121C18.1454 6.24121 17.25 7.13664 17.25 8.24121Z" stroke="#003736" stroke-width="1.3" stroke-linecap="round" stroke-linejoin="round"/>
<path d="M3.25 16.2412C3.25 17.3458 4.14543 18.2412 5.25 18.2412C6.35457 18.2412 7.25 17.3458 7.25 16.2412C7.25 15.1366 6.35457 14.2412 5.25 14.2412C4.14543 14.2412 3.25 15.1366 3.25 16.2412Z" stroke="#003736" stroke-width="1.3" stroke-linecap="round" stroke-linejoin="round"/>
<path d="M10.25 16.2412C10.25 17.3458 11.1454 18.2412 12.25 18.2412C13.3546 18.2412 14.25 17.3458 14.25 16.2412C14.25 15.1366 13.3546 14.2412 12.25 14.2412C11.1454 14.2412 10.25 15.1366 10.25 16.2412Z" stroke="#003736" stroke-width="1.3" stroke-linecap="round" stroke-linejoin="round"/>
<path d="M17.25 16.2412C17.25 17.3458 18.1454 18.2412 19.25 18.2412C20.3546 18.2412 21.25 17.3458 21.25 16.2412C21.25 15.1366 20.3546 14.2412 19.25 14.2412C18.1454 14.2412 17.25 15.1366 17.25 16.2412Z" stroke="#003736" stroke-width="1.3" stroke-linecap="round" stroke-linejoin="round"/>
</svg>
